<svg xmlns="http://www.w3.org/2000/svg" width="1180" height="610" viewBox="0 0 1180 610" role="img" aria-label="BenjackJB terminal profile">
  <defs>
    <filter id="shadow" x="-20%" y="-20%" width="140%" height="150%">
      <feDropShadow dx="0" dy="12" stdDeviation="16" flood-color="#02050B" flood-opacity=".28"/>
    </filter>
    <clipPath id="visualClip"><rect x="49" y="124" width="390" height="414" rx="3"/></clipPath>
  </defs>
  <rect width="1180" height="610" rx="18" fill="#0A101F"/>
  <rect x="13" y="13" width="1154" height="584" rx="13" fill="#0D1628" stroke="#25344C" filter="url(#shadow)"/>
  <path d="M13 62H1167" stroke="#25344C"/>
  <circle cx="38" cy="38" r="6" fill="#FF5F57"/>
  <circle cx="59" cy="38" r="6" fill="#FEBC2E"/>
  <circle cx="80" cy="38" r="6" fill="#28C840"/>
  <text x="590" y="43" text-anchor="middle" fill="#8291A8" font-family="ui-monospace,SFMono-Regular,Consolas,monospace" font-size="13" letter-spacing=".4">profile.sh --live</text>

  <!-- Left visual frame -->
  <rect x="35" y="88" width="418" height="472" rx="6" fill="#101B30" stroke="#25344C"/>
  <path d="M35 124H453" stroke="#25344C"/>
  <text x="49" y="111" fill="#22D3EE" font-family="ui-monospace,SFMono-Regular,Consolas,monospace" font-size="13" font-weight="700" letter-spacing="1.2">VISUAL.MAP</text>
  <text x="438" y="111" text-anchor="end" fill="#8291A8" font-family="ui-monospace,SFMono-Regular,Consolas,monospace" font-size="11">ANIMATED</text>
  <path d="M49 141h12M49 141v12M439 141h-12M439 141v12M49 539h12M49 539v-12M439 539h-12M439 539v-12" fill="none" stroke="#22D3EE" opacity=".55"/>

  <!-- Animated logos cycling: Gear (Rust) -> Code -> Star (Stellar) -->
  <g clip-path="url(#visualClip)">
    <!-- GEAR - Rust inspired -->
    <g opacity="0">
      <animate attributeName="opacity" values="0;1;1;0;0;0;0;0;0" dur="12.6s" repeatCount="indefinite" keyTimes="0;0.08;0.22;0.28;0.33;0.44;0.56;0.67;1"/>
      <!-- Outer gear teeth -->
      <circle cx="244" cy="331" r="140" fill="none" stroke="#AA9BEF" stroke-width="3" opacity=".6"/>
      <circle cx="244" cy="331" r="110" fill="none" stroke="#AA9BEF" stroke-width="2" opacity=".4"/>
      <circle cx="244" cy="331" r="80" fill="none" stroke="#AA9BEF" stroke-width="2" opacity=".3"/>
      <circle cx="244" cy="331" r="45" fill="none" stroke="#AA9BEF" stroke-width="3" opacity=".7"/>
      <circle cx="244" cy="331" r="15" fill="#AA9BEF" opacity=".5"/>
      <!-- Gear teeth -->
      <g stroke="#AA9BEF" stroke-width="4" opacity=".5">
        <line x1="244" y1="191" x2="244" y2="171"/>
        <line x1="244" y1="471" x2="244" y2="491"/>
        <line x1="104" y1="331" x2="84" y2="331"/>
        <line x1="384" y1="331" x2="404" y2="331"/>
        <line x1="145" y1="232" x2="131" y2="218"/>
        <line x1="343" y1="430" x2="357" y2="444"/>
        <line x1="145" y1="430" x2="131" y2="444"/>
        <line x1="343" y1="232" x2="357" y2="218"/>
        <line x1="244" y1="191" x2="244" y2="165" transform="rotate(22.5 244 331)"/>
        <line x1="244" y1="191" x2="244" y2="165" transform="rotate(67.5 244 331)"/>
        <line x1="244" y1="191" x2="244" y2="165" transform="rotate(112.5 244 331)"/>
        <line x1="244" y1="191" x2="244" y2="165" transform="rotate(157.5 244 331)"/>
        <line x1="244" y1="191" x2="244" y2="165" transform="rotate(202.5 244 331)"/>
        <line x1="244" y1="191" x2="244" y2="165" transform="rotate(247.5 244 331)"/>
        <line x1="244" y1="191" x2="244" y2="165" transform="rotate(292.5 244 331)"/>
        <line x1="244" y1="191" x2="244" y2="165" transform="rotate(337.5 244 331)"/>
      </g>
      <!-- Spokes -->
      <g stroke="#AA9BEF" stroke-width="1.5" opacity=".35">
        <line x1="244" y1="286" x2="244" y2="191"/>
        <line x1="244" y1="376" x2="244" y2="471"/>
        <line x1="199" y1="331" x2="104" y2="331"/>
        <line x1="289" y1="331" x2="384" y2="331"/>
        <line x1="212" y1="299" x2="145" y2="232"/>
        <line x1="276" y1="363" x2="343" y2="430"/>
        <line x1="212" y1="363" x2="145" y2="430"/>
        <line x1="276" y1="299" x2="343" y2="232"/>
      </g>
      <animateTransform attributeName="transform" type="rotate" from="0 244 331" to="360 244 331" dur="20s" repeatCount="indefinite"/>
    </g>

    <!-- CODE </> -->
    <g opacity="0">
      <animate attributeName="opacity" values="0;0;0;1;1;0;0;0;0" dur="12.6s" repeatCount="indefinite" keyTimes="0;0.08;0.22;0.28;0.33;0.44;0.56;0.67;1"/>
      <!-- Left angle < -->
      <polyline points="190,220 130,331 190,442" fill="none" stroke="#22D3EE" stroke-width="8" stroke-linecap="round" stroke-linejoin="round" opacity=".8"/>
      <!-- Right angle > -->
      <polyline points="298,220 358,331 298,442" fill="none" stroke="#22D3EE" stroke-width="8" stroke-linecap="round" stroke-linejoin="round" opacity=".8"/>
      <!-- Slash / -->
      <line x1="280" y1="195" x2="208" y2="467" stroke="#22D3EE" stroke-width="6" stroke-linecap="round" opacity=".6"/>
      <!-- Dots -->
      <circle cx="160" cy="280" r="4" fill="#22D3EE" opacity=".4"/>
      <circle cx="328" cy="280" r="4" fill="#22D3EE" opacity=".4"/>
      <circle cx="160" cy="382" r="4" fill="#22D3EE" opacity=".4"/>
      <circle cx="328" cy="382" r="4" fill="#22D3EE" opacity=".4"/>
    </g>

    <!-- STELLAR - 4-point star with connected nodes -->
    <g opacity="0">
      <animate attributeName="opacity" values="0;0;0;0;0;1;1;0;0" dur="12.6s" repeatCount="indefinite" keyTimes="0;0.08;0.22;0.28;0.33;0.44;0.56;0.67;1"/>
      <!-- Star -->
      <polygon points="244,170 268,300 400,331 268,362 244,492 220,362 88,331 220,300" fill="none" stroke="#10B981" stroke-width="3" opacity=".7"/>
      <polygon points="244,220 258,310 350,331 258,352 244,442 230,352 138,331 230,310" fill="#10B981" opacity=".08"/>
      <!-- Inner diamond -->
      <polygon points="244,270 268,331 244,392 220,331" fill="none" stroke="#10B981" stroke-width="2" opacity=".5"/>
      <!-- Center -->
      <circle cx="244" cy="331" r="8" fill="#10B981" opacity=".4"/>
      <!-- Nodes -->
      <circle cx="244" cy="170" r="5" fill="#10B981" opacity=".6"/>
      <circle cx="400" cy="331" r="5" fill="#10B981" opacity=".6"/>
      <circle cx="244" cy="492" r="5" fill="#10B981" opacity=".6"/>
      <circle cx="88" cy="331" r="5" fill="#10B981" opacity=".6"/>
      <!-- Connection lines to center -->
      <line x1="244" y1="175" x2="244" y2="323" stroke="#10B981" stroke-width="1" opacity=".3"/>
      <line x1="395" y1="331" x2="252" y2="331" stroke="#10B981" stroke-width="1" opacity=".3"/>
      <line x1="244" y1="487" x2="244" y2="339" stroke="#10B981" stroke-width="1" opacity=".3"/>
      <line x1="93" y1="331" x2="236" y2="331" stroke="#10B981" stroke-width="1" opacity=".3"/>
    </g>

    <text x="58" y="551" fill="#8291A8" font-family="ui-monospace,SFMono-Regular,Consolas,monospace" font-size="10">SHAPES · CYCLING</text>
  </g>

  <!-- Right information panel -->
  <rect x="474" y="88" width="672" height="472" rx="6" fill="#101B30" stroke="#25344C"/>
  <path d="M474 124H1146" stroke="#25344C"/>
  <text x="490" y="111" fill="#22D3EE" font-family="ui-monospace,SFMono-Regular,Consolas,monospace" font-size="13" font-weight="700" letter-spacing="1.2">SYSTEM.INFO</text>
  <!-- LIVE badge -->
  <g><circle cx="1050" cy="106" r="4" fill="#FF4D5A"><animate attributeName="opacity" values="1;.3;1" dur="1.6s" repeatCount="indefinite"/></circle></g>
  <text x="1062" y="111" fill="#FF4D5A" font-family="ui-monospace,SFMono-Regular,Consolas,monospace" font-size="12" font-weight="700">LIVE</text>
  <rect x="1100" y="94" width="50" height="24" rx="12" fill="#22D3EE" opacity=".16" stroke="#22D3EE"/>
  <text x="1125" y="111" text-anchor="middle" fill="#22D3EE" font-family="ui-monospace,SFMono-Regular,Consolas,monospace" font-size="14" font-weight="700">@BenjackJB</text>

  <!-- Info rows -->
  <text x="491" y="153" fill="#8291A8" font-family="ui-monospace,SFMono-Regular,Consolas,monospace" font-size="14">Subject</text>
  <text x="1127" y="153" text-anchor="end" fill="#DDE7F5" font-family="ui-monospace,SFMono-Regular,Consolas,monospace" font-size="14">BenjackJB</text>
  <text x="491" y="176" fill="#8291A8" font-family="ui-monospace,SFMono-Regular,Consolas,monospace" font-size="14">Role</text>
  <text x="1127" y="176" text-anchor="end" fill="#DDE7F5" font-family="ui-monospace,SFMono-Regular,Consolas,monospace" font-size="14">Est. Ingenieria en Ciberseguridad</text>
  <text x="491" y="199" fill="#8291A8" font-family="ui-monospace,SFMono-Regular,Consolas,monospace" font-size="14">Origin</text>
  <text x="1127" y="199" text-anchor="end" fill="#DDE7F5" font-family="ui-monospace,SFMono-Regular,Consolas,monospace" font-size="14">Temuco, Chile</text>
  <text x="491" y="222" fill="#8291A8" font-family="ui-monospace,SFMono-Regular,Consolas,monospace" font-size="14">Education</text>
  <text x="1127" y="222" text-anchor="end" fill="#DDE7F5" font-family="ui-monospace,SFMono-Regular,Consolas,monospace" font-size="14">INACAP - 4to+ Semestre</text>
  <text x="491" y="245" fill="#8291A8" font-family="ui-monospace,SFMono-Regular,Consolas,monospace" font-size="14">Focus</text>
  <text x="1127" y="245" text-anchor="end" fill="#DDE7F5" font-family="ui-monospace,SFMono-Regular,Consolas,monospace" font-size="14">Seguridad Informatica · Redes</text>
  <text x="491" y="268" fill="#8291A8" font-family="ui-monospace,SFMono-Regular,Consolas,monospace" font-size="14">Core.Lang</text>
  <text x="1127" y="268" text-anchor="end" fill="#DDE7F5" font-family="ui-monospace,SFMono-Regular,Consolas,monospace" font-size="14">Python · JavaScript · TypeScript</text>
  <text x="491" y="291" fill="#8291A8" font-family="ui-monospace,SFMono-Regular,Consolas,monospace" font-size="14">Backend</text>
  <text x="1127" y="291" text-anchor="end" fill="#DDE7F5" font-family="ui-monospace,SFMono-Regular,Consolas,monospace" font-size="14">Node · Python · PHP</text>
  <text x="491" y="314" fill="#8291A8" font-family="ui-monospace,SFMono-Regular,Consolas,monospace" font-size="14">Database</text>
  <text x="1127" y="314" text-anchor="end" fill="#DDE7F5" font-family="ui-monospace,SFMono-Regular,Consolas,monospace" font-size="14">SQL · MongoDB</text>
  <text x="491" y="337" fill="#8291A8" font-family="ui-monospace,SFMono-Regular,Consolas,monospace" font-size="14">OS</text>
  <text x="1127" y="337" text-anchor="end" fill="#DDE7F5" font-family="ui-monospace,SFMono-Regular,Consolas,monospace" font-size="14">GNU/Linux · Windows</text>
  <text x="491" y="360" fill="#8291A8" font-family="ui-monospace,SFMono-Regular,Consolas,monospace" font-size="14">Grid.GitHub</text>
  <text x="1127" y="360" text-anchor="end" fill="#DDE7F5" font-family="ui-monospace,SFMono-Regular,Consolas,monospace" font-size="14">BenjackJB</text>

  <path d="M490 530H1130" stroke="#25344C"/>
  <text x="491" y="548" fill="#10B981" font-family="ui-monospace,SFMono-Regular,Consolas,monospace" font-size="11">● ALL SYSTEMS NOMINAL</text>
  <text x="1128" y="548" text-anchor="end" fill="#8291A8" font-family="ui-monospace,SFMono-Regular,Consolas,monospace" font-size="11">UTC-4 · LATAM NODE</text>
</svg>
